<?xml version="1.0" encoding="UTF-8"?>
<svg xmlns="http://www.w3.org/2000/svg" xmlns:xlink="http://www.w3.org/1999/xlink" width="100pt" height="100pt" viewBox="0 0 100 100" version="1.1">
<g id="surface904043">
<path style=" stroke:none;fill-rule:nonzero;fill:rgb(100%,100%,100%);fill-opacity:1;" d="M 51.992188 96 C 26.625 96 5.984375 75.367188 5.984375 50 C 5.984375 24.632812 26.625 4 51.992188 4 C 63.484375 4 74.484375 8.257812 82.976562 15.992188 L 84.523438 17.40625 L 69.351562 32.578125 L 67.945312 31.375 C 63.492188 27.5625 57.828125 25.460938 51.992188 25.460938 C 38.460938 25.460938 27.445312 36.46875 27.445312 50 C 27.445312 63.53125 38.460938 74.539062 51.992188 74.539062 C 61.75 74.539062 69.460938 69.554688 73.09375 61.0625 L 49.992188 61.0625 L 49.992188 40.351562 L 95.09375 40.414062 L 95.429688 42 C 97.78125 53.164062 95.898438 69.585938 86.367188 81.335938 C 78.476562 91.0625 66.914062 96 51.992188 96 Z M 51.992188 96 "/>
</g>
</svg>
